{
    "asset" : {
        "generator" : "Khronos glTF Blender I/O v1.6.16",
        "version" : "2.0"
    },
    "scene" : 0,
    "scenes" : [
        {
            "name" : "Scene",
            "nodes" : [
                8,
                9,
                10
            ]
        }
    ],
    "nodes" : [
        {
            "mesh" : 0,
            "name" : "Mesh_0",
            "translation" : [
                -26.97848129272461,
                -7.000909328460693,
                0
            ]
        },
        {
            "mesh" : 1,
            "name" : "Mesh_1",
            "translation" : [
                -26.97848129272461,
                -7.000909328460693,
                0
            ]
        },
        {
            "mesh" : 2,
            "name" : "Mesh_2",
            "translation" : [
                -26.97848129272461,
                -7.000909328460693,
                0
            ]
        },
        {
            "mesh" : 3,
            "name" : "Mesh_3",
            "translation" : [
                -26.97848129272461,
                -7.000909328460693,
                0
            ]
        },
        {
            "mesh" : 4,
            "name" : "Mesh_4",
            "translation" : [
                -26.97848129272461,
                -7.000909328460693,
                0
            ]
        },
        {
            "mesh" : 5,
            "name" : "Mesh_5",
            "translation" : [
                -26.97848129272461,
                -7.000909328460693,
                0
            ]
        },
        {
            "children" : [
                0,
                1,
                2,
                3,
                4,
                5
            ],
            "name" : "2.obj.cleaner"
        },
        {
            "children" : [
                6
            ],
            "name" : "RootNode (model correction matrix)"
        },
        {
            "children" : [
                7
            ],
            "name" : "RootNode (gltf orientation matrix)",
            "rotation" : [
                -0.7071068286895752,
                0,
                0,
                0.7071068286895752
            ]
        },
        {
            "name" : "Light",
            "rotation" : [
                0.16907575726509094,
                0.7558803558349609,
                -0.27217137813568115,
                0.570947527885437
            ],
            "translation" : [
                4.076245307922363,
                5.903861999511719,
                -1.0054539442062378
            ]
        },
        {
            "name" : "Camera",
            "rotation" : [
                0.483536034822464,
                0.33687159419059753,
                -0.20870360732078552,
                0.7804827094078064
            ],
            "translation" : [
                7.358891487121582,
                4.958309173583984,
                6.925790786743164
            ]
        }
    ],
    "materials" : [
        {
            "doubleSided" : true,
            "name" : "New_material_001",
            "pbrMetallicRoughness" : {
                "baseColorFactor" : [
                    0.07876930385828018,
                    0.07876930385828018,
                    0.07876930385828018,
                    1
                ],
                "metallicFactor" : 0.7753669023513794,
                "roughnessFactor" : 0.2883003056049347
            }
        },
        {
            "doubleSided" : true,
            "name" : "New_material_002",
            "pbrMetallicRoughness" : {
                "metallicFactor" : 0,
                "roughnessFactor" : 0.12976372241973877
            }
        },
        {
            "doubleSided" : true,
            "name" : "boardB",
            "pbrMetallicRoughness" : {
                "baseColorFactor" : [
                    0.051801618188619614,
                    0.051801618188619614,
                    0.051801618188619614,
                    1
                ],
                "metallicFactor" : 0.3919588327407837,
                "roughnessFactor" : 0.6000000238418579
            }
        },
        {
            "doubleSided" : true,
            "name" : "boardW",
            "pbrMetallicRoughness" : {
                "metallicFactor" : 0,
                "roughnessFactor" : 0.6000000238418579
            }
        }
    ],
    "meshes" : [
        {
            "name" : "Mesh_0",
            "primitives" : [
                {
                    "attributes" : {
                        "POSITION" : 0,
                        "NORMAL" : 1,
                        "TEXCOORD_0" : 2
                    },
                    "indices" : 3,
                    "material" : 0
                }
            ]
        },
        {
            "name" : "Mesh_1",
            "primitives" : [
                {
                    "attributes" : {
                        "POSITION" : 4,
                        "NORMAL" : 5,
                        "TEXCOORD_0" : 6
                    },
                    "indices" : 7,
                    "material" : 0
                }
            ]
        },
        {
            "name" : "Mesh_2",
            "primitives" : [
                {
                    "attributes" : {
                        "POSITION" : 8,
                        "NORMAL" : 9,
                        "TEXCOORD_0" : 10
                    },
                    "indices" : 11,
                    "material" : 1
                }
            ]
        },
        {
            "name" : "Mesh_3",
            "primitives" : [
                {
                    "attributes" : {
                        "POSITION" : 12,
                        "NORMAL" : 13,
                        "TEXCOORD_0" : 14
                    },
                    "indices" : 15,
                    "material" : 1
                }
            ]
        },
        {
            "name" : "Mesh_4",
            "primitives" : [
                {
                    "attributes" : {
                        "POSITION" : 16,
                        "NORMAL" : 17,
                        "TEXCOORD_0" : 18
                    },
                    "indices" : 19,
                    "material" : 2
                }
            ]
        },
        {
            "name" : "Mesh_5",
            "primitives" : [
                {
                    "attributes" : {
                        "POSITION" : 20,
                        "NORMAL" : 21,
                        "TEXCOORD_0" : 22
                    },
                    "indices" : 19,
                    "material" : 3
                }
            ]
        }
    ],
    "accessors" : [
        {
            "bufferView" : 0,
            "componentType" : 5126,
            "count" : 9414,
            "max" : [
                34.554473876953125,
                14.922719955444336,
                5.906317710876465
            ],
            "min" : [
                19.264188766479492,
                11.437255859375,
                0.005242960527539253
            ],
            "type" : "VEC3"
        },
        {
            "bufferView" : 1,
            "componentType" : 5126,
            "count" : 9414,
            "type" : "VEC3"
        },
        {
            "bufferView" : 2,
            "componentType" : 5126,
            "count" : 9414,
            "type" : "VEC2"
        },
        {
            "bufferView" : 3,
            "componentType" : 5123,
            "count" : 10218,
            "type" : "SCALAR"
        },
        {
            "bufferView" : 4,
            "componentType" : 5126,
            "count" : 2534,
            "max" : [
                34.73579788208008,
                14.858675003051758,
                4.814117431640625
            ],
            "min" : [
                25.14516258239746,
                13.142281532287598,
                0.009927431121468544
            ],
            "type" : "VEC3"
        },
        {
            "bufferView" : 5,
            "componentType" : 5126,
            "count" : 2534,
            "type" : "VEC3"
        },
        {
            "bufferView" : 6,
            "componentType" : 5126,
            "count" : 2534,
            "type" : "VEC2"
        },
        {
            "bufferView" : 7,
            "componentType" : 5123,
            "count" : 2850,
            "type" : "SCALAR"
        },
        {
            "bufferView" : 8,
            "componentType" : 5126,
            "count" : 9412,
            "max" : [
                34.73579788208008,
                2.562744617462158,
                5.906317710876465
            ],
            "min" : [
                19.43947982788086,
                -0.9227199554443359,
                0.005242960527539253
            ],
            "type" : "VEC3"
        },
        {
            "bufferView" : 9,
            "componentType" : 5126,
            "count" : 9412,
            "type" : "VEC3"
        },
        {
            "bufferView" : 10,
            "componentType" : 5126,
            "count" : 9412,
            "type" : "VEC2"
        },
        {
            "bufferView" : 11,
            "componentType" : 5123,
            "count" : 10218,
            "type" : "SCALAR"
        },
        {
            "bufferView" : 12,
            "componentType" : 5126,
            "count" : 2532,
            "max" : [
                26.855098724365234,
                0.857717752456665,
                4.814117431640625
            ],
            "min" : [
                19.264188766479492,
                -0.8586742877960205,
                0.009927431121468544
            ],
            "type" : "VEC3"
        },
        {
            "bufferView" : 13,
            "componentType" : 5126,
            "count" : 2532,
            "type" : "VEC3"
        },
        {
            "bufferView" : 14,
            "componentType" : 5126,
            "count" : 2532,
            "type" : "VEC2"
        },
        {
            "bufferView" : 15,
            "componentType" : 5123,
            "count" : 2850,
            "type" : "SCALAR"
        },
        {
            "bufferView" : 16,
            "componentType" : 5126,
            "count" : 768,
            "max" : [
                35,
                15,
                0
            ],
            "min" : [
                19,
                -1,
                -1
            ],
            "type" : "VEC3"
        },
        {
            "bufferView" : 17,
            "componentType" : 5126,
            "count" : 768,
            "type" : "VEC3"
        },
        {
            "bufferView" : 18,
            "componentType" : 5126,
            "count" : 768,
            "type" : "VEC2"
        },
        {
            "bufferView" : 19,
            "componentType" : 5123,
            "count" : 1152,
            "type" : "SCALAR"
        },
        {
            "bufferView" : 20,
            "componentType" : 5126,
            "count" : 768,
            "max" : [
                35,
                15,
                0
            ],
            "min" : [
                19,
                -1,
                -1
            ],
            "type" : "VEC3"
        },
        {
            "bufferView" : 21,
            "componentType" : 5126,
            "count" : 768,
            "type" : "VEC3"
        },
        {
            "bufferView" : 22,
            "componentType" : 5126,
            "count" : 768,
            "type" : "VEC2"
        }
    ],
    "bufferViews" : [
        {
            "buffer" : 0,
            "byteLength" : 112968,
            "byteOffset" : 0
        },
        {
            "buffer" : 0,
            "byteLength" : 112968,
            "byteOffset" : 112968
        },
        {
            "buffer" : 0,
            "byteLength" : 75312,
            "byteOffset" : 225936
        },
        {
            "buffer" : 0,
            "byteLength" : 20436,
            "byteOffset" : 301248
        },
        {
            "buffer" : 0,
            "byteLength" : 30408,
            "byteOffset" : 321684
        },
        {
            "buffer" : 0,
            "byteLength" : 30408,
            "byteOffset" : 352092
        },
        {
            "buffer" : 0,
            "byteLength" : 20272,
            "byteOffset" : 382500
        },
        {
            "buffer" : 0,
            "byteLength" : 5700,
            "byteOffset" : 402772
        },
        {
            "buffer" : 0,
            "byteLength" : 112944,
            "byteOffset" : 408472
        },
        {
            "buffer" : 0,
            "byteLength" : 112944,
            "byteOffset" : 521416
        },
        {
            "buffer" : 0,
            "byteLength" : 75296,
            "byteOffset" : 634360
        },
        {
            "buffer" : 0,
            "byteLength" : 20436,
            "byteOffset" : 709656
        },
        {
            "buffer" : 0,
            "byteLength" : 30384,
            "byteOffset" : 730092
        },
        {
            "buffer" : 0,
            "byteLength" : 30384,
            "byteOffset" : 760476
        },
        {
            "buffer" : 0,
            "byteLength" : 20256,
            "byteOffset" : 790860
        },
        {
            "buffer" : 0,
            "byteLength" : 5700,
            "byteOffset" : 811116
        },
        {
            "buffer" : 0,
            "byteLength" : 9216,
            "byteOffset" : 816816
        },
        {
            "buffer" : 0,
            "byteLength" : 9216,
            "byteOffset" : 826032
        },
        {
            "buffer" : 0,
            "byteLength" : 6144,
            "byteOffset" : 835248
        },
        {
            "buffer" : 0,
            "byteLength" : 2304,
            "byteOffset" : 841392
        },
        {
            "buffer" : 0,
            "byteLength" : 9216,
            "byteOffset" : 843696
        },
        {
            "buffer" : 0,
            "byteLength" : 9216,
            "byteOffset" : 852912
        },
        {
            "buffer" : 0,
            "byteLength" : 6144,
            "byteOffset" : 862128
        }
    ],
    "buffers" : [
        {
            "byteLength" : 868272,
            "uri" : "data:application/octet-stream;base64,"
        }
    ]
}
